HIERARCHY
ROOT Hips
{
	OFFSET 0.000000 0.000000 0.000000
	CHANNELS 6 Xposition Yposition Zposition Xrotation Yrotation Zrotation
	JOINT LeftUpLeg_virtual
	{
		OFFSET 0.000000 0.000000 0.000000
		CHANNELS 3 Xrotation Yrotation Zrotation
		JOINT LeftUpLeg
		{
			OFFSET 13.026900 -6.336304 -1.092800
			CHANNELS 3 Xrotation Yrotation Zrotation
			JOINT LeftLeg
			{
				OFFSET 0.524474 -46.096886 9.782700
				CHANNELS 3 Xrotation Yrotation Zrotation
				JOINT LeftFoot
				{
					OFFSET -0.524474 -53.427422 -12.948200
					CHANNELS 3 Xrotation Yrotation Zrotation
					JOINT LeftToeBase
					{
						OFFSET 0.192200 -14.009700 16.364100
						CHANNELS 3 Xrotation Yrotation Zrotation
						JOINT LeftToe_End
						{
							OFFSET -1.784700 -0.561700 9.474800
							CHANNELS 3 Xrotation Yrotation Zrotation
							End Site
							{
								OFFSET 0 0 0
							}
						}
					}
				}
			}
		}
	}
	JOINT RightUpLeg_virtual
	{
		OFFSET 0.000000 0.000000 0.000000
		CHANNELS 3 Xrotation Yrotation Zrotation
		JOINT RightUpLeg
		{
			OFFSET -12.883000 -6.336304 -1.092800
			CHANNELS 3 Xrotation Yrotation Zrotation
			JOINT RightLeg
			{
				OFFSET -0.524587 -46.096825 9.782800
				CHANNELS 3 Xrotation Yrotation Zrotation
				JOINT RightFoot
				{
					OFFSET 0.524587 -53.427383 -12.948300
					CHANNELS 3 Xrotation Yrotation Zrotation
					JOINT RightToeBase
					{
						OFFSET -0.192200 -14.009700 16.364100
						CHANNELS 3 Xrotation Yrotation Zrotation
						JOINT RightToe_End
						{
							OFFSET 1.784700 -0.561700 9.474800
							CHANNELS 3 Xrotation Yrotation Zrotation
							End Site
							{
								OFFSET 0 0 0
							}
						}
					}
				}
			}
		}
	}
	JOINT Spine_virtual
	{
		OFFSET 0.000000 0.000000 0.000000
		CHANNELS 3 Xrotation Yrotation Zrotation
		JOINT Spine
		{
			OFFSET 0.072000 7.257294 -0.789700
			CHANNELS 3 Xrotation Yrotation Zrotation
			JOINT Spine1
			{
				OFFSET 0.000000 12.508769 -0.658067
				CHANNELS 3 Xrotation Yrotation Zrotation
				JOINT Spine1_split
				{
					OFFSET 0.000000 12.508769 -0.658067
					CHANNELS 3 Xrotation Yrotation Zrotation
					JOINT Spine2
					{
						OFFSET 0.000000 12.508769 -0.658067
						CHANNELS 3 Xrotation Yrotation Zrotation
						JOINT Neck_virtual
						{
							OFFSET 0.000000 0.000000 0.000000
							CHANNELS 3 Xrotation Yrotation Zrotation
							JOINT Neck
							{
								OFFSET 0.000000 14.033295 7.520400
								CHANNELS 3 Xrotation Yrotation Zrotation
								JOINT Head
								{
									OFFSET 0.000000 8.198502 5.703100
									CHANNELS 3 Xrotation Yrotation Zrotation
									JOINT HeadTop_End
									{
										OFFSET 0.000000 17.760803 13.332701
										CHANNELS 3 Xrotation Yrotation Zrotation
										End Site
										{
											OFFSET 0 0 0
										}
									}
								}
							}
						}
						JOINT LeftShoulder_virtual
						{
							OFFSET 0.000000 0.000000 0.000000
							CHANNELS 3 Xrotation Yrotation Zrotation
							JOINT LeftShoulder
							{
								OFFSET 6.292450 5.785301 -0.669000
								CHANNELS 3 Xrotation Yrotation Zrotation
								JOINT LeftShoulder_split
								{
									OFFSET 6.292450 5.785301 -0.669000
									CHANNELS 3 Xrotation Yrotation Zrotation
									JOINT LeftArm
									{
										OFFSET 13.907140 -6.093903 1.965100
										CHANNELS 3 Xrotation Yrotation Zrotation
										JOINT LeftForeArm
										{
											OFFSET 34.140198 0.000000 0.000000
											CHANNELS 3 Xrotation Yrotation Zrotation
											JOINT LeftHand
											{
												OFFSET 40.960209 0.000000 0.000000
												CHANNELS 3 Xrotation Yrotation Zrotation
												End Site
												{
													OFFSET 0 0 0
												}
											}
										}
									}
								}
							}
						}
						JOINT RightShoulder_virtual
						{
							OFFSET 0.000000 0.000000 0.000000
							CHANNELS 3 Xrotation Yrotation Zrotation
							JOINT RightShoulder
							{
								OFFSET -6.292450 5.785301 -0.669000
								CHANNELS 3 Xrotation Yrotation Zrotation
								JOINT RightShoulder_split
								{
									OFFSET -6.292450 5.785301 -0.669000
									CHANNELS 3 Xrotation Yrotation Zrotation
									JOINT RightArm
									{
										OFFSET -13.907140 -6.093903 1.965100
										CHANNELS 3 Xrotation Yrotation Zrotation
										JOINT RightForeArm
										{
											OFFSET -34.140198 0.000000 0.000000
											CHANNELS 3 Xrotation Yrotation Zrotation
											JOINT RightHand
											{
												OFFSET -40.960209 0.000000 0.000000
												CHANNELS 3 Xrotation Yrotation Zrotation
												End Site
												{
													OFFSET 0 0 0
												}
											}
										}
									}
								}
							}
						}
					}
				}
			}
		}
	}
}
MOTION
Frames: 6
Frame Time: 0.03333333
6.800591 63.661385 20.924149 0.000000 0.000000 0.000000 3.861814 15.422883 1.436173 -87.904992 -13.032541 12.169651 78.562297 -0.248707 -1.496909 12.767121 -9.475249 -13.773984 -5.542924 -0.610760 -2.043120 0.000000 0.000000 0.000000 3.426127 16.624054 1.420494 -88.925716 13.759098 -10.080204 81.662739 0.690802 1.065443 12.967098 -4.858924 15.879669 2.392231 0.430082 -7.197943 0.000000 0.000000 0.000000 2.552516 19.479759 1.757629 5.574573 -0.319587 1.484590 5.258147 -1.149327 -0.844865 0.142512 -0.077587 0.091254 0.000000 0.000000 0.000000 5.395298 1.110084 -1.014337 -6.172313 10.748189 2.513478 -37.548063 -13.200535 12.208522 0.000000 0.000000 0.000000 3.168939 -1.500709 -1.728565 -1.064581 -20.441260 -10.183392 -3.712038 2.927216 -4.036338 10.595017 -10.914198 -44.904898 16.803459 -70.235498 12.015391 0.000000 0.000000 0.000000 4.283840 -0.558681 -0.302316 -2.394391 -0.174987 6.585850 2.346832 2.317390 5.971992 7.614113 35.726814 61.081439 -18.883304 61.536596 13.735720 0.000000 0.000000 0.000000 
6.898545 63.640930 20.905197 0.000000 0.000000 0.000000 3.636263 15.250525 1.541724 -87.788435 -13.132192 12.129090 78.550345 -0.263547 -1.562115 13.013237 -9.472632 -13.663752 -5.555542 -0.591526 -2.061254 0.000000 0.000000 0.000000 3.258887 16.472849 1.562384 -88.750522 13.598575 -10.236041 81.413908 0.659150 1.123386 12.910026 -4.828746 15.738383 2.177529 0.448928 -7.204425 0.000000 0.000000 0.000000 2.283465 19.500526 1.794419 5.633509 -0.326616 1.353231 5.348134 -1.068349 -0.733832 0.174014 -0.065920 0.023812 0.000000 0.000000 0.000000 5.321524 1.236061 -0.955217 -5.972692 10.808756 2.399068 -37.382612 -13.799403 12.498696 0.000000 0.000000 0.000000 3.227875 -1.359642 -1.672903 -1.111659 -20.626287 -10.357272 -2.856676 2.442743 -3.532801 10.256715 -10.987122 -45.495101 18.146138 -69.184181 12.839573 0.000000 0.000000 0.000000 4.475238 -0.428165 -0.297349 -2.294943 -0.088438 6.945569 1.951004 2.057713 5.660578 7.411310 33.721303 59.717198 -17.565493 60.179998 12.944470 0.000000 0.000000 0.000000 
6.944571 63.643528 20.868366 0.000000 0.000000 0.000000 3.177940 15.073642 1.761207 -87.446359 -13.226030 12.026847 78.427244 -0.206304 -1.592251 13.325467 -9.623900 -13.451005 -5.719216 -0.567035 -2.078538 0.000000 0.000000 0.000000 2.788847 16.194175 1.822463 -88.402401 13.406158 -10.441584 81.120299 0.687363 1.175280 12.799674 -4.728800 15.631832 1.952909 0.476892 -7.213477 0.000000 0.000000 0.000000 1.918167 19.584200 1.805032 5.585892 -0.365992 0.932799 5.724432 -1.056754 -0.510443 0.166345 -0.045955 -0.031552 0.000000 0.000000 0.000000 5.473507 1.337119 -0.788448 -5.092787 10.622233 2.500029 -37.550433 -14.841634 12.399118 0.000000 0.000000 0.000000 3.491297 -1.239597 -1.504955 -1.095093 -20.949737 -10.540425 -2.372189 2.231331 -2.271852 9.264591 -11.407615 -46.145212 18.780949 -69.711390 13.626369 0.000000 0.000000 0.000000 4.957220 -0.351107 -0.231971 -2.164293 0.366496 7.662895 1.585041 2.089082 5.353290 7.684744 31.308361 56.528852 -16.980497 60.648446 12.817818 0.000000 0.000000 0.000000 
6.918199 63.693253 20.821873 0.000000 0.000000 0.000000 2.557384 14.995076 2.051549 -86.944811 -13.320668 11.884300 78.233021 -0.086118 -1.591846 13.604418 -9.881292 -13.208496 -5.938080 -0.540582 -2.086626 0.000000 0.000000 0.000000 2.155892 15.917925 2.156485 -87.962502 13.243527 -10.678773 80.823268 0.792883 1.213952 12.640197 -4.572433 15.547633 1.828492 0.499381 -7.226154 0.000000 0.000000 0.000000 1.495619 19.697823 1.814472 5.440373 -0.433871 0.305948 6.356848 -1.098404 -0.221369 0.160751 -0.090987 -0.036792 0.000000 0.000000 0.000000 5.863233 1.389967 -0.538098 -3.714469 10.195407 2.727416 -38.234825 -16.399858 11.737901 0.000000 0.000000 0.000000 3.951092 -1.125846 -1.262475 -0.953038 -21.343429 -10.512649 -2.199913 2.060450 -0.948504 7.369959 -11.931496 -46.299363 19.590596 -72.531760 15.205925 0.000000 0.000000 0.000000 5.673281 -0.322076 -0.126934 -2.017959 1.204989 8.480464 1.249471 1.870361 5.156094 7.860025 28.961607 52.281635 -17.885216 64.371862 14.150032 0.000000 0.000000 0.000000 
6.835485 63.769188 20.729958 0.000000 0.000000 0.000000 1.846622 14.967782 2.367754 -86.405206 -13.446987 11.704415 78.068871 0.079168 -1.564006 13.826162 -10.153617 -13.041280 -6.051854 -0.514340 -2.086577 0.000000 0.000000 0.000000 1.446017 15.716962 2.491774 -87.519230 13.129178 -10.927707 80.572607 0.955083 1.249229 12.469265 -4.407102 15.423508 1.855501 0.511207 -7.251012 0.000000 0.000000 0.000000 1.068110 19.755526 1.822871 5.197871 -0.535057 -0.380243 7.195001 -1.154657 0.087256 0.142935 -0.109068 0.008940 0.000000 0.000000 0.000000 6.458555 1.377131 -0.251909 -2.008215 9.549254 2.924555 -39.291609 -18.235835 10.529917 0.000000 0.000000 0.000000 4.593775 -1.047145 -1.009824 -0.657028 -21.710439 -10.221153 -2.112920 1.508767 -0.068106 4.713134 -12.378956 -45.368937 22.137053 -77.498482 18.885290 0.000000 0.000000 0.000000 6.538401 -0.326366 -0.000109 -1.888394 2.384562 9.089857 1.513465 1.143118 5.365009 7.364823 27.067140 47.633476 -22.679594 71.678744 19.280905 0.000000 0.000000 0.000000 
6.730619 63.832344 20.648308 0.000000 0.000000 0.000000 1.187324 14.864652 2.654276 -85.923151 -13.626301 11.510055 77.936454 0.301921 -1.542299 13.912461 -10.315638 -13.011177 -6.000067 -0.492491 -2.071201 0.000000 0.000000 0.000000 0.822740 15.511746 2.770931 -87.215088 13.067380 -11.181897 80.411209 1.133923 1.299319 12.331848 -4.270291 15.228979 1.988408 0.512042 -7.296529 0.000000 0.000000 0.000000 0.674880 19.728324 1.890505 4.855496 -0.689645 -0.995924 8.177203 -1.194316 0.347621 0.123933 -0.119693 0.029576 0.000000 0.000000 0.000000 7.201707 1.321143 0.006649 -0.143699 8.840683 2.943704 -40.619767 -20.073120 8.895984 0.000000 0.000000 0.000000 5.373875 -0.990908 -0.806967 -0.188697 -21.886358 -9.541185 -2.104245 -0.030542 0.469953 1.137009 -12.995516 -42.861626 33.728649 -83.966029 31.678120 0.000000 0.000000 0.000000 7.452821 -0.342954 0.111879 -1.767572 3.926286 9.147853 2.014329 0.663901 6.244134 5.717428 25.479141 43.078696 -43.383395 80.776522 40.199860 0.000000 0.000000 0.000000 
